<svg xmlns="http://www.w3.org/2000/svg" xmlns:xlink="http://www.w3.org/1999/xlink" width="128" zoomAndPan="magnify" viewBox="0 0 96 95.999999" height="128" preserveAspectRatio="xMidYMid meet" version="1.0"><defs><clipPath id="31e02420ae"><path d="M 23 5.390625 L 80.101562 5.390625 L 80.101562 18 L 23 18 Z M 23 5.390625 " clip-rule="nonzero"/></clipPath><clipPath id="742dc2b53a"><path d="M 9.601562 41 L 30 41 L 30 55 L 9.601562 55 Z M 9.601562 41 " clip-rule="nonzero"/></clipPath><clipPath id="3cd375bbdb"><path d="M 23.144531 78.210938 L 80.101562 78.210938 L 80.101562 90.597656 L 23.144531 90.597656 Z M 23.144531 78.210938 " clip-rule="nonzero"/></clipPath></defs><rect x="-9.6" width="115.2" fill="#ffffff" y="-9.6" height="115.199999" fill-opacity="1"/><rect x="-9.6" width="115.2" fill="#ffffff" y="-9.6" height="115.199999" fill-opacity="1"/><g clip-path="url(#31e02420ae)"><path fill="#8449ff" d="M 74.019531 17.75 L 29.347656 17.75 C 25.933594 17.75 23.167969 14.980469 23.167969 11.570312 C 23.167969 8.15625 25.933594 5.390625 29.347656 5.390625 L 74.019531 5.390625 C 77.433594 5.390625 80.199219 8.15625 80.199219 11.570312 C 80.199219 14.980469 77.433594 17.75 74.019531 17.75 " fill-opacity="1" fill-rule="nonzero"/></g><path fill="#5ce1e6" d="M 40.402344 35.960938 L 25.660156 35.960938 C 22.25 35.960938 19.480469 33.195312 19.480469 29.78125 C 19.480469 26.371094 22.25 23.601562 25.660156 23.601562 L 40.402344 23.601562 C 43.816406 23.601562 46.582031 26.371094 46.582031 29.78125 C 46.582031 33.195312 43.816406 35.960938 40.402344 35.960938 " fill-opacity="1" fill-rule="nonzero"/><g clip-path="url(#742dc2b53a)"><path fill="#8449ff" d="M 23.167969 54.171875 L 15.796875 54.171875 C 12.382812 54.171875 9.617188 51.40625 9.617188 47.996094 C 9.617188 44.582031 12.382812 41.816406 15.796875 41.816406 L 23.167969 41.816406 C 26.582031 41.816406 29.347656 44.582031 29.347656 47.996094 C 29.347656 51.40625 26.582031 54.171875 23.167969 54.171875 " fill-opacity="1" fill-rule="nonzero"/></g><path fill="#5ce1e6" d="M 40.402344 72.386719 L 25.660156 72.386719 C 22.25 72.386719 19.480469 69.621094 19.480469 66.207031 C 19.480469 62.792969 22.25 60.027344 25.660156 60.027344 L 40.402344 60.027344 C 43.816406 60.027344 46.582031 62.792969 46.582031 66.207031 C 46.582031 69.621094 43.816406 72.386719 40.402344 72.386719 " fill-opacity="1" fill-rule="nonzero"/><g clip-path="url(#3cd375bbdb)"><path fill="#8449ff" d="M 74.019531 90.597656 L 29.347656 90.597656 C 25.933594 90.597656 23.167969 87.832031 23.167969 84.417969 C 23.167969 81.007812 25.933594 78.242188 29.347656 78.242188 L 74.019531 78.242188 C 77.433594 78.242188 80.199219 81.007812 80.199219 84.417969 C 80.199219 87.832031 77.433594 90.597656 74.019531 90.597656 " fill-opacity="1" fill-rule="nonzero"/></g></svg>