<svg xmlns="http://www.w3.org/2000/svg" xmlns:xlink="http://www.w3.org/1999/xlink" width="500" zoomAndPan="magnify" viewBox="0 0 375 374.999991" height="500" preserveAspectRatio="xMidYMid meet" version="1.0"><defs><clipPath id="cf8d6a7668"><path d="M 187 245 L 334 245 L 334 347.839844 L 187 347.839844 Z M 187 245 " clip-rule="nonzero"/></clipPath></defs><path fill="#f68712" d="M 143.207031 80.066406 C 137.6875 83.535156 130.554688 86.867188 121.53125 89.875 C 101.503906 96.550781 80.402344 93.21875 60.355469 98.546875 C 55.289062 99.898438 47.746094 103.5 43.175781 108.210938 C 43.175781 108.210938 57.160156 81.710938 97.90625 65.886719 C 101.582031 64.453125 105.476562 63.109375 109.601562 61.886719 C 134.628906 54.429688 127.578125 43.941406 116.625 47.023438 C 116.625 47.023438 125.691406 40.640625 138.558594 41.125 C 157.941406 41.863281 170.875 62.691406 143.207031 80.066406 " fill-opacity="1" fill-rule="nonzero"/><path fill="#f68712" d="M 242.757812 80.230469 C 238.726562 97.195312 226.382812 112.09375 212.4375 124.0625 C 197 137.320312 179.605469 146.976562 169.410156 151.847656 C 102.890625 183.65625 36.132812 171.734375 28.214844 204.164062 C 28.214844 204.164062 12.382812 175.003906 49.726562 154.339844 C 70.285156 142.964844 81.8125 137.082031 129.816406 119.679688 C 144.320312 114.417969 162.015625 108.003906 177.679688 97.730469 C 188.351562 90.722656 198.082031 81.929688 205.21875 70.484375 C 217.566406 50.679688 201.980469 31.015625 173.777344 29.351562 C 216.734375 26.953125 250.054688 49.527344 242.757812 80.230469 " fill-opacity="1" fill-rule="nonzero"/><path fill="#3871c1" d="M 267.132812 197.964844 C 253.289062 208.648438 236.179688 218.730469 215.621094 227.820312 C 136.617188 262.738281 70.988281 255.09375 55.703125 288.488281 C 55.703125 288.488281 34.789062 244.695312 107.703125 220.960938 C 171.820312 200.097656 215.957031 180.015625 244.96875 160.890625 C 308.230469 119.183594 299.539062 81.992188 269.128906 51.023438 C 270.945312 52.113281 272.683594 53.183594 274.253906 54.183594 C 325.769531 90.300781 329.148438 150.132812 267.132812 197.964844 " fill-opacity="1" fill-rule="nonzero"/><path fill="#40b93c" d="M 330.507812 229.3125 C 321.492188 245.050781 308.28125 258.207031 292.464844 269.339844 C 273.488281 282.691406 250.742188 293.140625 226.960938 301.652344 C 195.726562 312.835938 119.011719 322.140625 116.53125 340.019531 C 116.53125 340.019531 106.753906 321.828125 141.453125 304.117188 C 181.292969 283.78125 223.230469 267.902344 262.777344 246.945312 C 266.636719 244.902344 274.042969 241.167969 282.746094 235.636719 C 309.777344 218.480469 349.316406 184.054688 333.894531 129.429688 C 334.460938 130.289062 362.636719 173.234375 330.507812 229.3125 " fill-opacity="1" fill-rule="nonzero"/><g clip-path="url(#cf8d6a7668)"><path fill="#40b93c" d="M 333.386719 245.855469 C 333.386719 245.855469 331.789062 269.398438 298.554688 299.777344 C 298.464844 299.867188 298.371094 299.949219 298.285156 300.03125 C 280.488281 316.234375 259.046875 327.949219 240.75 335.632812 C 212.585938 347.457031 187.765625 347.664062 187.507812 347.742188 C 218.554688 338.03125 263.902344 312.390625 296.191406 286.609375 C 314.308594 272.140625 328.324219 257.625 333.386719 245.855469 " fill-opacity="1" fill-rule="nonzero"/></g><path fill="#fbc108" d="M 143.207031 80.066406 C 127.457031 73.511719 112.078125 68.988281 97.90625 65.886719 C 101.582031 64.453125 105.476562 63.109375 109.601562 61.886719 C 134.628906 54.429688 127.578125 43.941406 116.625 47.023438 C 116.625 47.023438 125.691406 40.640625 138.558594 41.125 C 157.941406 41.863281 170.875 62.691406 143.207031 80.066406 " fill-opacity="1" fill-rule="nonzero"/><path fill="#fbc108" d="M 242.757812 80.230469 C 238.726562 97.195312 226.382812 112.09375 212.4375 124.0625 C 201.191406 113.746094 189.5 105.050781 177.679688 97.730469 C 188.351562 90.722656 198.082031 81.929688 205.21875 70.484375 C 217.566406 50.679688 201.980469 31.015625 173.777344 29.351562 C 216.734375 26.953125 250.054688 49.527344 242.757812 80.230469 " fill-opacity="1" fill-rule="nonzero"/><path fill="#00adef" d="M 267.132812 197.964844 C 260.375 184.316406 252.933594 171.996094 244.96875 160.890625 C 308.230469 119.183594 299.539062 81.992188 269.128906 51.023438 C 270.945312 52.113281 272.683594 53.183594 274.253906 54.183594 C 325.769531 90.300781 329.148438 150.132812 267.132812 197.964844 " fill-opacity="1" fill-rule="nonzero"/><path fill="#80cc28" d="M 333.386719 245.855469 C 333.386719 245.855469 331.789062 269.398438 298.554688 299.777344 C 297.820312 295.304688 297.03125 290.914062 296.191406 286.609375 C 314.308594 272.140625 328.324219 257.625 333.386719 245.855469 " fill-opacity="1" fill-rule="nonzero"/><path fill="#80cc28" d="M 292.464844 269.339844 C 289.617188 257.445312 286.363281 246.226562 282.746094 235.636719 C 309.777344 218.480469 349.316406 184.054688 333.894531 129.429688 C 334.460938 130.289062 362.636719 173.234375 330.507812 229.3125 C 321.492188 245.050781 308.28125 258.207031 292.464844 269.339844 " fill-opacity="1" fill-rule="nonzero"/></svg>